<svg class="svg-icon" style="width: 1em; height: 1em;vertical-align: middle;fill: currentColor;overflow: hidden;" viewBox="0 0 1024 1024" version="1.1" xmlns="http://www.w3.org/2000/svg"><path d="M816.830801 565.756165l-68.95221 0c-11.025258 0-19.997723 10.004135-20.002517 22.300764 0 12.303341 8.973423 22.313228 20.002517 22.313228l68.95221 0c11.026217 0 19.996764-10.011805 19.996764-22.313228C836.825648 575.7603 827.857019 565.756165 816.830801 565.756165zM836.93591 158.29621 185.30373 158.29621c-60.358472 0-109.465408 55.275865-109.465408 123.217498l0 450.361528c0 67.942592 49.106936 123.215581 109.465408 123.215581l651.63218 0c60.36039 0 109.466367-55.272989 109.466367-123.215581l0-450.361528C946.402277 213.572075 897.297258 158.29621 836.93591 158.29621zM905.273528 737.32794c0 41.307086-29.696 74.911161-66.192779 74.911161L179.787745 812.239101c-36.497738 0-66.190861-33.605034-66.190861-74.911161l0-349.509034 791.677603 0L905.274487 737.32794zM905.273528 343.206831 113.593049 343.206831l0-67.131446c0-41.305169 29.696-74.909243 66.196614-74.909243l659.28821 0c36.500614 0 66.196614 33.604075 66.196614 74.909243L905.274487 343.206831zM527.469303 462.858547 202.861303 462.858547c-11.026217 0-19.997723 10.007011-19.997723 22.304599 0 12.299506 8.971506 22.306517 19.997723 22.306517l324.608 0c11.025258 0 19.994846-10.007011 19.994846-22.306517C547.463191 472.865558 538.494562 462.858547 527.469303 462.858547zM816.830801 645.925393l-68.95221 0c-11.025258 0-19.997723 10.004135-20.002517 22.301723 0 12.299506 8.973423 22.306517 20.002517 22.306517l68.95221 0c11.026217 0 19.996764-10.007011 19.996764-22.306517C836.825648 655.929528 827.857019 645.925393 816.830801 645.925393z"  /></svg>