<svg class="svg-icon" style="width: 1em; height: 1em;vertical-align: middle;fill: currentColor;overflow: hidden;" viewBox="0 0 1024 1024" version="1.1" xmlns="http://www.w3.org/2000/svg"><path d="M320 448l0 128L128 576 64 576l0 128 0 256 62.976 0L128 640l192 0 0 320 64 0 256 0 64 0 0-320 192 0 0 320 64 0 0-320L960 576l-64 0-192 0L704 448 320 448zM800 178.752l105.344-105.344c12.48-12.48 32.768-12.48 45.248 0s12.48 32.768 0 45.248L845.248 224l105.344 105.344c12.48 12.48 12.48 32.768 0 45.248s-32.768 12.48-45.248 0L800 269.248l-105.344 105.344c-12.48 12.48-32.768 12.48-45.248 0C643.136 368.384 640 360.192 640 352s3.136-16.384 9.344-22.656L754.752 224l-105.344-105.344C643.136 112.384 640 104.192 640 96s3.136-16.384 9.344-22.656c12.48-12.48 32.768-12.48 45.248 0L800 178.752z"  /></svg>