<svg class="svg-icon" style="width: 1em; height: 1em;vertical-align: middle;fill: currentColor;overflow: hidden;" viewBox="0 0 1024 1024" version="1.1" xmlns="http://www.w3.org/2000/svg"><path d="M576 704 448 704l0 192 0 64L320 960 64 960l0-62.976L384 896l0-192L64 704l0-64L64 384 64 320l320 0L384 128 64 128 64 64l320 0 64 0 0 64 0 192 128 0L576 704zM845.248 224l105.344-105.344c12.48-12.48 12.48-32.768 0-45.248s-32.768-12.48-45.248 0L800 178.752l-105.344-105.344c-12.48-12.48-32.768-12.48-45.248 0s-12.48 32.768 0 45.248L754.752 224l-105.344 105.344c-12.48 12.48-12.48 32.768 0 45.248C655.616 380.864 663.808 384 672 384s16.384-3.136 22.656-9.344L800 269.248l105.344 105.344C911.616 380.864 919.808 384 928 384s16.384-3.136 22.656-9.344c12.48-12.48 12.48-32.768 0-45.248L845.248 224z"  /></svg>