<svg class="svg-icon" style="width: 1em; height: 1em;vertical-align: middle;fill: currentColor;overflow: hidden;" viewBox="0 0 1024 1024" version="1.1" xmlns="http://www.w3.org/2000/svg"><path d="M896 725.333333V341.333333H298.666667v384h597.333333m0-597.333333a85.333333 85.333333 0 0 1 85.333333 85.333333v512a85.333333 85.333333 0 0 1-85.333333 85.333334H298.666667a85.333333 85.333333 0 0 1-85.333334-85.333334V213.333333a85.333333 85.333333 0 0 1 85.333334-85.333333h42.666666V42.666667h85.333334v85.333333h341.333333V42.666667h85.333333v85.333333h42.666667M128 896h597.333333v85.333333H128a85.333333 85.333333 0 0 1-85.333333-85.333333V384h85.333333v512m682.666667-256h-170.666667v-170.666667h170.666667v170.666667z" fill="" /></svg>