<svg class="svg-icon" style="width: 1em;height: 1em;vertical-align: middle;fill: currentColor;overflow: hidden;" viewBox="0 0 1024 1024" version="1.1" xmlns="http://www.w3.org/2000/svg"><path d="M881.2 816.69H146.06c-43.54 0-79.16-35.62-79.16-79.16V257.67c0-43.54 35.62-79.16 79.16-79.16H881.2c43.54 0 79.16 35.62 79.16 79.16v479.87c-0.01 43.53-35.63 79.15-79.16 79.15z m15.34-129.36V307.88c0-36.05-29.5-65.55-65.55-65.55H196.27c-36.05 0-65.55 29.5-65.55 65.55v379.45c0 36.05 29.5 65.55 65.55 65.55h634.72c36.05-0.01 65.55-29.5 65.55-65.55z"  /><path d="M554.28 623.89l91.81-159.01c18.07-31.29-4.52-70.41-40.65-70.41H421.82c-36.13 0-58.72 39.12-40.65 70.41l91.81 159.01c18.06 31.29 63.23 31.29 81.3 0z"  /></svg>